<?xml version="1.0" standalone="no"?><!DOCTYPE svg PUBLIC "-//W3C//DTD SVG 1.1//EN" "http://www.w3.org/Graphics/SVG/1.1/DTD/svg11.dtd"><svg t="1514363588456" class="icon" style="" viewBox="0 0 1024 1024" version="1.1" xmlns="http://www.w3.org/2000/svg" p-id="6446" xmlns:xlink="http://www.w3.org/1999/xlink" width="32" height="32"><defs><style type="text/css"></style></defs><path d="M524.925 840.479c-136.028 7.219-255.65-73.311-307.774-183.183-57.279-120.653-46.499-239.9 35.343-346.21 77.904-101.341 186.37-141.559 314.804-126.466 63.748 7.5 119.997 33.28 168.933 74.154 26.624 22.218 25.968 32.155-3.469 48.749-25.593 14.438-51.374 28.687-76.873 43.405-70.404 40.593-141.278 80.529-210.932 122.435-37.312 22.405-44.718 58.311-23.905 95.435 22.499 40.218 66.279 49.499 112.591 23.155 137.621-78.279 274.775-157.402 412.771-234.932 22.874-12.844 25.312-25.874 15.188-47.624-35.718-76.498-88.311-139.309-158.715-186.37C647.172 19.249 481.052 2.561 310.993 81.497 141.31 160.245 49.062 298.429 33.782 480.674 21.126 631.702 79.531 759.573 190.247 864.852c154.496 146.715 412.583 169.777 590.048 51.843 46.218-30.749 46.218-30.749 17.531-77.623-30.937-50.718-61.686-60.092-115.497-34.78-50.812 23.999-103.591 39.562-157.402 36.187z" fill="#2c2c2c" p-id="6447"></path><path d="M991.976 625.891c-2.531-36.28-22.593-65.717-39.843-96.185-5.625-9.938-14.625-6.094-22.78-1.594-31.593 17.812-63.186 35.812-95.06 53.155-13.5 7.406-15.938 16.313-8.156 29.343 18.187 30.093 36.187 60.279 53.53 90.842 7.594 13.219 16.594 16.313 29.718 8.156 19.03-11.813 38.718-22.874 57.092-35.624 16.5-11.344 26.155-27.28 25.499-48.093z" fill="#2c2c2c" p-id="6448"></path></svg>