<?xml version="1.0" standalone="no"?><!DOCTYPE svg PUBLIC "-//W3C//DTD SVG 1.1//EN" "http://www.w3.org/Graphics/SVG/1.1/DTD/svg11.dtd"><svg t="1514345571341" class="icon" style="" viewBox="0 0 1024 1024" version="1.1" xmlns="http://www.w3.org/2000/svg" p-id="4991" xmlns:xlink="http://www.w3.org/1999/xlink" width="32" height="32"><defs><style type="text/css"></style></defs><path d="M950.272 231.424V63.488c0-28.672-22.528-51.2-51.2-51.2H124.928C96.256 12.288 73.728 34.816 73.728 63.488v167.936s92.16 86.016 284.672 161.792c0 0-141.312 34.816-284.672-55.296v647.168c0 16.384 12.288 28.672 28.672 28.672h817.152c16.384 0 28.672-12.288 28.672-28.672V337.92c-145.408 83.968-284.672 55.296-284.672 55.296 206.848-75.776 286.72-161.792 286.72-161.792zM512 376.832c81.92 0 147.456 65.536 147.456 147.456S593.92 671.744 512 671.744s-147.456-65.536-147.456-147.456 65.536-147.456 147.456-147.456z" p-id="4992" fill="#ffffff"></path></svg>