<?xml version="1.0" standalone="no"?><!DOCTYPE svg PUBLIC "-//W3C//DTD SVG 1.1//EN" "http://www.w3.org/Graphics/SVG/1.1/DTD/svg11.dtd"><svg t="1514344956557" class="icon" style="" viewBox="0 0 1024 1024" version="1.1" xmlns="http://www.w3.org/2000/svg" p-id="4256" xmlns:xlink="http://www.w3.org/1999/xlink" width="32" height="32"><defs><style type="text/css"></style></defs><path d="M31.014 339.581c0 0 79.503 30.449 152.24 25.374s174.233-50.747 275.726-45.671 166.62 20.298 230.899 33.83c64.279 13.533 91.344 5.921 98.111-0.846 6.766-6.765 11.841-31.294-18.607-29.603-30.449 1.692-91.344 9.303-87.116-26.219 4.229-35.522 77.812-37.215 130.251-20.298 0 0-8.004-18.988-36.369-21.146-30.145-2.292-46.004-2.928-43.467-22.17 2.985-22.627 25.281-31.859 63.764-10.817 30.61 16.737 40.127 33.301 57.604 57.969 0 0 90.71 21.355 147.075 60.441 0 0 43.228 33.23 0 49.055-44.014 16.114-52.439-7.612-137.017 25.374s-169.157 89.653-185.227 107.414c-16.070 17.762-21.143 25.374-9.303 37.215 11.841 11.841 5.075 22.836-0.846 28.757-6.895 8.434-56.365 45.071-104.032 60.051-46.19 14.516-115.872 27.91-134.48 28.757 0 0 93.882 8.458 104.031 72.737s-13.533 61.743-13.533 61.743-120.099-119.258-213.981-125.179-9.303-101.494 68.508-153.932c0 0-34.374 10.182-63.435 32.986 0 0-34.677-37.215-10.148-111.644 0 0-176.615 10.126-291.795-92.19-7.458-6.228-19.44-33.998 21.146-21.991z" fill="#f4ea2a" p-id="4257"></path></svg>