<?xml version="1.0" standalone="no"?><!DOCTYPE svg PUBLIC "-//W3C//DTD SVG 1.1//EN" "http://www.w3.org/Graphics/SVG/1.1/DTD/svg11.dtd"><svg t="1514344819506" class="icon" style="" viewBox="0 0 1024 1024" version="1.1" xmlns="http://www.w3.org/2000/svg" p-id="2945" xmlns:xlink="http://www.w3.org/1999/xlink" width="32" height="32"><defs><style type="text/css"></style></defs><path d="M491.861333 322.602667c15.914667 0 28.8 12.928 28.8 28.8v160l138.581334 80a28.8 28.8 0 0 1-28.8 49.92l-152.96-88.32a28.757333 28.757333 0 0 1-14.421334-24.96v-176.64c0-15.872 12.928-28.8 28.8-28.8z m375.381334 161.024c15.872 0 28.8 12.928 28.757333 28.842666C895.701333 724.010667 723.456 896 512 896h-0.512a381.312 381.312 0 0 1-271.36-112.810667A381.44 381.44 0 0 1 128 511.530667a381.269333 381.269333 0 0 1 112.810667-271.402667A381.568 381.568 0 0 1 512 128h0.426667a380.416 380.416 0 0 1 275.84 117.333333l0.085333-81.152c0-15.872 12.928-28.757333 28.8-28.757333h0.042667c15.914667 0 28.757333 12.928 28.757333 28.842667l-0.170667 165.546666a28.672 28.672 0 0 1-28.8 28.757334h-0.042666l-165.546667-0.170667a28.8 28.8 0 0 1 0-57.6l108.885333 0.128a323.413333 323.413333 0 0 0-247.893333-115.328H512a324.266667 324.266667 0 0 0-230.528 95.317333A324.352 324.352 0 0 0 185.6 511.573333a324.309333 324.309333 0 0 0 95.317333 230.912 324.309333 324.309333 0 0 0 230.656 95.872H512c179.797333 0 326.186667-146.176 326.4-326.016 0-15.914667 12.885333-28.757333 28.8-28.757333z" p-id="2946" fill="#1afa29"></path></svg>